<?xml version="1.0" encoding="UTF-8"?>
	<svg xmlns="http://www.w3.org/2000/svg" viewBox="0 0 595 842" width="595" height="842" role="img" aria-label="中文 ATS">
		<defs>
			<style>
				.text { font-family: "Noto Sans SC", "Microsoft YaHei", "PingFang SC", Arial, sans-serif; }
				.body { font-family: "Noto Sans SC", "Microsoft YaHei", "PingFang SC", Arial, sans-serif; fill: #334155; font-weight: 400; }
				.strong { font-family: "Noto Sans SC", "Microsoft YaHei", "PingFang SC", Arial, sans-serif; font-weight: 700; }
				.section-title { font-family: "Noto Sans SC", "Microsoft YaHei", "PingFang SC", Arial, sans-serif; font-size: 14px; font-weight: 700; }
				.muted { font-family: "Noto Sans SC", "Microsoft YaHei", "PingFang SC", Arial, sans-serif; fill: #64748b; }
				.white { font-family: "Noto Sans SC", "Microsoft YaHei", "PingFang SC", Arial, sans-serif; fill: #fff; }
			</style>
			<filter id="paper" x="-10%" y="-10%" width="120%" height="120%">
				<feDropShadow dx="0" dy="8" stdDeviation="8" flood-color="#0f172a" flood-opacity=".12"/>
			</filter>
		</defs>
		<rect x="0" y="0" width="595" height="842" rx="0" fill="#fbfaf6" filter="url(#paper)"/>
		<g class="text"><rect x="0" y="0" width="595" height="842" fill="#fbfaf6"/>
<text x="297.5" y="68" class="strong" font-size="29" text-anchor="middle" fill="#111827">何清越</text>
<text x="297.5" y="98" class="body" font-size="12" text-anchor="middle" fill="#64748b">数据分析实习生 / 2026 届</text>
<text x="297.5" y="122" class="body" font-size="9.5" text-anchor="middle" fill="#64748b">上海 · heqingyue@example.com · +86 134 0000 0000</text>
<line x1="70" y1="150" x2="525" y2="150" stroke="#155e75" stroke-width="2"/>

		<text x="70" y="196" class="section-title" fill="#155e75" >个人总结</text>
		<line x1="70" y1="206" x2="525" y2="206" stroke="#155e75" stroke-width="1.3" opacity=".55"/>
		<text x="70" y="224" class="body" font-size="11">统计学背景，熟悉 SQL、Python 和可视化分析，有电商用户行为分析与课程项目经验。</text>
	

		<text x="70" y="286" class="section-title" fill="#155e75" >工作经历</text>
		<line x1="70" y1="296" x2="525" y2="296" stroke="#155e75" stroke-width="1.3" opacity=".55"/>
		
				<g>
					<text x="70" y="322" class="strong" font-size="13">数据分析实习生</text>
					<text x="70" y="340" class="muted" font-size="10">某电商平台  2025</text>
				
				<circle cx="74" cy="360" r="2.4" fill="#155e75"/>
				<text x="84" y="364" class="body" font-size="10">完成用户留存 cohort 分析并提出召回策略</text>
			
				<circle cx="74" cy="383" r="2.4" fill="#155e75"/>
				<text x="84" y="387" class="body" font-size="10">搭建活动复盘看板，节省 40% 人工统计时间</text>
			
				</g>
			
				<g>
					<text x="70" y="440" class="strong" font-size="13">销售预测模型</text>
					<text x="70" y="458" class="muted" font-size="10">课程项目  2024</text>
				
				<circle cx="74" cy="478" r="2.4" fill="#155e75"/>
				<text x="84" y="482" class="body" font-size="10">使用 XGBoost 建模，MAPE 从 18% 优化至 11%</text>
			
				<circle cx="74" cy="501" r="2.4" fill="#155e75"/>
				<text x="84" y="505" class="body" font-size="10">完成特征工程、误差分析和可视化汇报</text>
			
				</g>
			
	

		<text x="70" y="594" class="section-title" fill="#155e75" >教育经历</text>
		<line x1="70" y1="604" x2="525" y2="604" stroke="#155e75" stroke-width="1.3" opacity=".55"/>
		<text x="70" y="626" class="body" font-size="11">上海财经大学 / 统计学 / 本科 / GPA 3.7</text>
	

		<text x="70" y="684" class="section-title" fill="#155e75" >技能</text>
		<line x1="70" y1="694" x2="525" y2="694" stroke="#155e75" stroke-width="1.3" opacity=".55"/>
		
				<rect x="70" y="712" width="48" height="20" rx="10" fill="#155e75" opacity=".10" stroke="#155e75" stroke-opacity=".25"/>
				<text x="94" y="726" class="body" font-size="9.5" text-anchor="middle" fill="#155e75">SQL</text>
			
				<rect x="125" y="712" width="76" height="20" rx="10" fill="#155e75" opacity=".10" stroke="#155e75" stroke-opacity=".25"/>
				<text x="163" y="726" class="body" font-size="9.5" text-anchor="middle" fill="#155e75">Python</text>
			
				<rect x="70" y="739" width="86" height="20" rx="10" fill="#155e75" opacity=".10" stroke="#155e75" stroke-opacity=".25"/>
				<text x="113" y="753" class="body" font-size="9.5" text-anchor="middle" fill="#155e75">Tableau</text>
			
				<rect x="163" y="739" width="66" height="20" rx="10" fill="#155e75" opacity=".10" stroke="#155e75" stroke-opacity=".25"/>
				<text x="196" y="753" class="body" font-size="9.5" text-anchor="middle" fill="#155e75">Excel</text>
			
				<rect x="70" y="766" width="56" height="20" rx="10" fill="#155e75" opacity=".10" stroke="#155e75" stroke-opacity=".25"/>
				<text x="98" y="780" class="body" font-size="9.5" text-anchor="middle" fill="#155e75">回归分析</text>
			
				<rect x="133" y="766" width="56" height="20" rx="10" fill="#155e75" opacity=".10" stroke="#155e75" stroke-opacity=".25"/>
				<text x="161" y="780" class="body" font-size="9.5" text-anchor="middle" fill="#155e75">数据挖掘</text>
			
	</g>
	</svg>