<?xml version="1.0" encoding="UTF-8"?>
	<svg xmlns="http://www.w3.org/2000/svg" viewBox="0 0 595 842" width="595" height="842" role="img" aria-label="职能稳重">
		<defs>
			<style>
				.text { font-family: "Noto Sans SC", "Microsoft YaHei", "PingFang SC", Arial, sans-serif; }
				.body { font-family: "Noto Sans SC", "Microsoft YaHei", "PingFang SC", Arial, sans-serif; fill: #334155; font-weight: 400; }
				.strong { font-family: "Noto Sans SC", "Microsoft YaHei", "PingFang SC", Arial, sans-serif; font-weight: 700; }
				.section-title { font-family: "Noto Sans SC", "Microsoft YaHei", "PingFang SC", Arial, sans-serif; font-size: 14px; font-weight: 700; }
				.muted { font-family: "Noto Sans SC", "Microsoft YaHei", "PingFang SC", Arial, sans-serif; fill: #64748b; }
				.white { font-family: "Noto Sans SC", "Microsoft YaHei", "PingFang SC", Arial, sans-serif; fill: #fff; }
			</style>
			<filter id="paper" x="-10%" y="-10%" width="120%" height="120%">
				<feDropShadow dx="0" dy="8" stdDeviation="8" flood-color="#0f172a" flood-opacity=".12"/>
			</filter>
		</defs>
		<rect x="0" y="0" width="595" height="842" rx="0" fill="#fbfaf6" filter="url(#paper)"/>
		<g class="text"><rect x="0" y="0" width="595" height="842" fill="#fbfaf6"/>
<text x="297.5" y="68" class="strong" font-size="29" text-anchor="middle" fill="#111827">唐予墨</text>
<text x="297.5" y="98" class="body" font-size="12" text-anchor="middle" fill="#64748b">HRBP / 组织发展</text>
<text x="297.5" y="122" class="body" font-size="9.5" text-anchor="middle" fill="#64748b">成都 · tangyumo@example.com · +86 132 0000 0000</text>
<line x1="70" y1="150" x2="525" y2="150" stroke="#b45309" stroke-width="2"/>

		<text x="70" y="196" class="section-title" fill="#b45309" >个人总结</text>
		<line x1="70" y1="206" x2="525" y2="206" stroke="#b45309" stroke-width="1.3" opacity=".55"/>
		<text x="70" y="224" class="body" font-size="11">支持 500 人研发组织，覆盖招聘、绩效、人才盘点与组织诊断，能把 HR 工作落到业务指标。</text>
	

		<text x="70" y="286" class="section-title" fill="#b45309" >工作经历</text>
		<line x1="70" y1="296" x2="525" y2="296" stroke="#b45309" stroke-width="1.3" opacity=".55"/>
		
				<g>
					<text x="70" y="322" class="strong" font-size="13">HRBP</text>
					<text x="70" y="340" class="muted" font-size="10">快手  2021 - 至今</text>
				
				<circle cx="74" cy="360" r="2.4" fill="#b45309"/>
				<text x="84" y="364" class="body" font-size="10">搭建关键岗位人才地图，招聘周期缩短 22%</text>
			
				<circle cx="74" cy="383" r="2.4" fill="#b45309"/>
				<text x="84" y="387" class="body" font-size="10">推进绩效校准机制，管理者满意度提升至 4.6/5</text>
			
				<circle cx="74" cy="406" r="2.4" fill="#b45309"/>
				<text x="84" y="410" class="body" font-size="10">组织研发梯队建设和校招生培养项目</text>
			
				</g>
			
				<g>
					<text x="70" y="440" class="strong" font-size="13">招聘专家</text>
					<text x="70" y="458" class="muted" font-size="10">滴滴  2018 - 2021</text>
				
				<circle cx="74" cy="478" r="2.4" fill="#b45309"/>
				<text x="84" y="482" class="body" font-size="10">负责技术岗位招聘，年交付 120+ offer</text>
			
				<circle cx="74" cy="501" r="2.4" fill="#b45309"/>
				<text x="84" y="505" class="body" font-size="10">建立面试官培训和候选人体验机制</text>
			
				</g>
			
	

		<text x="70" y="594" class="section-title" fill="#b45309" >教育经历</text>
		<line x1="70" y1="604" x2="525" y2="604" stroke="#b45309" stroke-width="1.3" opacity=".55"/>
		<text x="70" y="626" class="body" font-size="11">四川大学 / 人力资源管理 / 本科</text>
	

		<text x="70" y="684" class="section-title" fill="#b45309" >技能</text>
		<line x1="70" y1="694" x2="525" y2="694" stroke="#b45309" stroke-width="1.3" opacity=".55"/>
		
				<rect x="70" y="712" width="56" height="20" rx="10" fill="#b45309" opacity=".10" stroke="#b45309" stroke-opacity=".25"/>
				<text x="98" y="726" class="body" font-size="9.5" text-anchor="middle" fill="#b45309">人才盘点</text>
			
				<rect x="133" y="712" width="56" height="20" rx="10" fill="#b45309" opacity=".10" stroke="#b45309" stroke-opacity=".25"/>
				<text x="161" y="726" class="body" font-size="9.5" text-anchor="middle" fill="#b45309">绩效管理</text>
			
				<rect x="196" y="712" width="48" height="20" rx="10" fill="#b45309" opacity=".10" stroke="#b45309" stroke-opacity=".25"/>
				<text x="220" y="726" class="body" font-size="9.5" text-anchor="middle" fill="#b45309">招聘</text>
			
				<rect x="70" y="739" width="56" height="20" rx="10" fill="#b45309" opacity=".10" stroke="#b45309" stroke-opacity=".25"/>
				<text x="98" y="753" class="body" font-size="9.5" text-anchor="middle" fill="#b45309">组织诊断</text>
			
				<rect x="133" y="739" width="66" height="20" rx="10" fill="#b45309" opacity=".10" stroke="#b45309" stroke-opacity=".25"/>
				<text x="166" y="753" class="body" font-size="9.5" text-anchor="middle" fill="#b45309">面试官培训</text>
			
				<rect x="206" y="739" width="56" height="20" rx="10" fill="#b45309" opacity=".10" stroke="#b45309" stroke-opacity=".25"/>
				<text x="234" y="753" class="body" font-size="9.5" text-anchor="middle" fill="#b45309">数据分析</text>
			
	</g>
	</svg>