<?xml version="1.0" encoding="UTF-8"?>
	<svg xmlns="http://www.w3.org/2000/svg" viewBox="0 0 595 842" width="595" height="842" role="img" aria-label="创意现代">
		<defs>
			<style>
				.text { font-family: "Noto Sans SC", "Microsoft YaHei", "PingFang SC", Arial, sans-serif; }
				.body { font-family: "Noto Sans SC", "Microsoft YaHei", "PingFang SC", Arial, sans-serif; fill: #334155; font-weight: 400; }
				.strong { font-family: "Noto Sans SC", "Microsoft YaHei", "PingFang SC", Arial, sans-serif; font-weight: 700; }
				.section-title { font-family: "Noto Sans SC", "Microsoft YaHei", "PingFang SC", Arial, sans-serif; font-size: 14px; font-weight: 700; }
				.muted { font-family: "Noto Sans SC", "Microsoft YaHei", "PingFang SC", Arial, sans-serif; fill: #64748b; }
				.white { font-family: "Noto Sans SC", "Microsoft YaHei", "PingFang SC", Arial, sans-serif; fill: #fff; }
			</style>
			<filter id="paper" x="-10%" y="-10%" width="120%" height="120%">
				<feDropShadow dx="0" dy="8" stdDeviation="8" flood-color="#0f172a" flood-opacity=".12"/>
			</filter>
		</defs>
		<rect x="0" y="0" width="595" height="842" rx="0" fill="#fbfaf6" filter="url(#paper)"/>
		<g class="text"><rect x="0" y="0" width="595" height="842" fill="#fbfaf6"/>
<path d="M0 0 H595 V178 C468 145 360 205 228 166 C126 136 64 166 0 142 Z" fill="#7c3aed"/>
<path d="M0 0 H595 V126 C460 105 366 158 245 128 C126 96 66 118 0 98 Z" fill="#1f3a5f" opacity=".72"/>
<text x="52" y="72" class="white strong" font-size="31">沈南栀</text>
<text x="52" y="103" class="white" font-size="13" opacity=".9">UI/UX 设计师 / ToB 工具</text>
<text x="52" y="130" class="white" font-size="10.5" opacity=".85">广州 / shennanzhi@example.com</text>

		<text x="52" y="230" class="section-title" fill="#7c3aed" >关于我</text>
		<line x1="52" y1="240" x2="542" y2="240" stroke="#7c3aed" stroke-width="1.3" opacity=".55"/>
		<text x="52" y="258" class="body" font-size="11">4 年工具型产品设计经验，擅长复杂流程梳理、设计系统建设与交互细节打磨。</text>
	

		<text x="52" y="322" class="section-title" fill="#7c3aed" >工作经历</text>
		<line x1="52" y1="332" x2="542" y2="332" stroke="#7c3aed" stroke-width="1.3" opacity=".55"/>
		
				<g>
					<text x="52" y="358" class="strong" font-size="13">高级体验设计师</text>
					<text x="52" y="376" class="muted" font-size="10">蓝湖协作  2022 - 至今</text>
				
				<circle cx="56" cy="396" r="2.4" fill="#7c3aed"/>
				<text x="66" y="400" class="body" font-size="10">重设数据分析后台，关键任务完成时间降低 38%</text>
			
				<circle cx="56" cy="419" r="2.4" fill="#7c3aed"/>
				<text x="66" y="423" class="body" font-size="10">建立 Figma 组件库，覆盖 9 条产品线 120+ 组件</text>
			
				<circle cx="56" cy="442" r="2.4" fill="#7c3aed"/>
				<text x="66" y="446" class="body" font-size="10">推动暗色模式与响应式规范落地</text>
			
				</g>
			
				<g>
					<text x="52" y="476" class="strong" font-size="13">UI 设计师</text>
					<text x="52" y="494" class="muted" font-size="10">石墨文档  2020 - 2022</text>
				
				<circle cx="56" cy="514" r="2.4" fill="#7c3aed"/>
				<text x="66" y="518" class="body" font-size="10">负责协作编辑和权限设置体验</text>
			
				<circle cx="56" cy="537" r="2.4" fill="#7c3aed"/>
				<text x="66" y="541" class="body" font-size="10">参与设计 token 与组件规范建设</text>
			
				</g>
			
	

		<text x="52" y="636" class="section-title" fill="#7c3aed" >专业技能</text>
		<line x1="52" y1="646" x2="542" y2="646" stroke="#7c3aed" stroke-width="1.3" opacity=".55"/>
		
				<rect x="52" y="664" width="66" height="20" rx="10" fill="#7c3aed" opacity=".10" stroke="#7c3aed" stroke-opacity=".25"/>
				<text x="85" y="678" class="body" font-size="9.5" text-anchor="middle" fill="#7c3aed">Figma</text>
			
				<rect x="125" y="664" width="56" height="20" rx="10" fill="#7c3aed" opacity=".10" stroke="#7c3aed" stroke-opacity=".25"/>
				<text x="153" y="678" class="body" font-size="9.5" text-anchor="middle" fill="#7c3aed">设计系统</text>
			
				<rect x="188" y="664" width="66" height="20" rx="10" fill="#7c3aed" opacity=".10" stroke="#7c3aed" stroke-opacity=".25"/>
				<text x="221" y="678" class="body" font-size="9.5" text-anchor="middle" fill="#7c3aed">可用性测试</text>
			
				<rect x="52" y="691" width="66" height="20" rx="10" fill="#7c3aed" opacity=".10" stroke="#7c3aed" stroke-opacity=".25"/>
				<text x="85" y="705" class="body" font-size="9.5" text-anchor="middle" fill="#7c3aed">B 端产品</text>
			
				<rect x="125" y="691" width="56" height="20" rx="10" fill="#7c3aed" opacity=".10" stroke="#7c3aed" stroke-opacity=".25"/>
				<text x="153" y="705" class="body" font-size="9.5" text-anchor="middle" fill="#7c3aed">交互原型</text>
			
				<rect x="52" y="718" width="136" height="20" rx="10" fill="#7c3aed" opacity=".10" stroke="#7c3aed" stroke-opacity=".25"/>
				<text x="120" y="732" class="body" font-size="9.5" text-anchor="middle" fill="#7c3aed">Design Token</text>
			
	</g>
	</svg>