<?xml version="1.0" encoding="UTF-8"?>
	<svg xmlns="http://www.w3.org/2000/svg" viewBox="0 0 595 842" width="595" height="842" role="img" aria-label="现代极简">
		<defs>
			<style>
				.text { font-family: "Noto Sans SC", "Microsoft YaHei", "PingFang SC", Arial, sans-serif; }
				.body { font-family: "Noto Sans SC", "Microsoft YaHei", "PingFang SC", Arial, sans-serif; fill: #334155; font-weight: 400; }
				.strong { font-family: "Noto Sans SC", "Microsoft YaHei", "PingFang SC", Arial, sans-serif; font-weight: 700; }
				.section-title { font-family: "Noto Sans SC", "Microsoft YaHei", "PingFang SC", Arial, sans-serif; font-size: 14px; font-weight: 700; }
				.muted { font-family: "Noto Sans SC", "Microsoft YaHei", "PingFang SC", Arial, sans-serif; fill: #64748b; }
				.white { font-family: "Noto Sans SC", "Microsoft YaHei", "PingFang SC", Arial, sans-serif; fill: #fff; }
			</style>
			<filter id="paper" x="-10%" y="-10%" width="120%" height="120%">
				<feDropShadow dx="0" dy="8" stdDeviation="8" flood-color="#0f172a" flood-opacity=".12"/>
			</filter>
		</defs>
		<rect x="0" y="0" width="595" height="842" rx="0" fill="#fbfaf6" filter="url(#paper)"/>
		<g class="text"><rect x="0" y="0" width="595" height="842" fill="#fbfaf6"/>
<text x="58" y="76" class="strong" font-size="32" fill="#1f3a5f">林知夏</text>
<text x="58" y="108" class="body" font-size="13" fill="#64748b">高级产品经理 / B 端 SaaS</text>
<line x1="58" y1="136" x2="537" y2="136" stroke="#1f3a5f" stroke-width="1.8"/>
<text x="58" y="178" class="body" font-size="11">7 年企业服务产品经验，主导 CRM、权限体系与经营看板，擅长把复杂业务流程拆成可交付的产品闭环。</text>

		<text x="58" y="248" class="section-title" fill="#1f3a5f" >左侧能力</text>
		<line x1="58" y1="258" x2="228" y2="258" stroke="#1f3a5f" stroke-width="1.3" opacity=".55"/>
		
				<rect x="58" y="276" width="54" height="20" rx="10" fill="#1f3a5f" opacity=".10" stroke="#1f3a5f" stroke-opacity=".25"/>
				<text x="85" y="290" class="body" font-size="9.5" text-anchor="middle" fill="#1f3a5f">需求分析</text>
			
				<rect x="119" y="276" width="54" height="20" rx="10" fill="#1f3a5f" opacity=".10" stroke="#1f3a5f" stroke-opacity=".25"/>
				<text x="146" y="290" class="body" font-size="9.5" text-anchor="middle" fill="#1f3a5f">SaaS</text>
			
				<rect x="180" y="276" width="54" height="20" rx="10" fill="#1f3a5f" opacity=".10" stroke="#1f3a5f" stroke-opacity=".25"/>
				<text x="207" y="290" class="body" font-size="9.5" text-anchor="middle" fill="#1f3a5f">SQL</text>
			
				<rect x="58" y="303" width="54" height="20" rx="10" fill="#1f3a5f" opacity=".10" stroke="#1f3a5f" stroke-opacity=".25"/>
				<text x="85" y="317" class="body" font-size="9.5" text-anchor="middle" fill="#1f3a5f">Axure</text>
			
				<rect x="119" y="303" width="54" height="20" rx="10" fill="#1f3a5f" opacity=".10" stroke="#1f3a5f" stroke-opacity=".25"/>
				<text x="146" y="317" class="body" font-size="9.5" text-anchor="middle" fill="#1f3a5f">数据看板</text>
			
				<rect x="180" y="303" width="54" height="20" rx="10" fill="#1f3a5f" opacity=".10" stroke="#1f3a5f" stroke-opacity=".25"/>
				<text x="207" y="317" class="body" font-size="9.5" text-anchor="middle" fill="#1f3a5f">权限体系</text>
			
	

		<text x="258" y="248" class="section-title" fill="#1f3a5f" >主经历</text>
		<line x1="258" y1="258" x2="538" y2="258" stroke="#1f3a5f" stroke-width="1.3" opacity=".55"/>
		
				<g>
					<text x="258" y="284" class="strong" font-size="13">高级产品经理</text>
					<text x="258" y="302" class="muted" font-size="10">云桥科技  2021 - 至今</text>
				
				<circle cx="262" cy="322" r="2.4" fill="#1f3a5f"/>
				<text x="272" y="326" class="body" font-size="10">重构线索到回款链路，销售跟进效率提升 31%</text>
			
				<circle cx="262" cy="345" r="2.4" fill="#1f3a5f"/>
				<text x="272" y="349" class="body" font-size="10">搭建经营仪表盘，周报制作时间下降 70%</text>
			
				<circle cx="262" cy="368" r="2.4" fill="#1f3a5f"/>
				<text x="272" y="372" class="body" font-size="10">推进权限中心重构，覆盖 12 条业务线</text>
			
				</g>
			
				<g>
					<text x="258" y="402" class="strong" font-size="13">产品经理</text>
					<text x="258" y="420" class="muted" font-size="10">明远软件  2018 - 2021</text>
				
				<circle cx="262" cy="440" r="2.4" fill="#1f3a5f"/>
				<text x="272" y="444" class="body" font-size="10">负责客户成功后台和工单系统，续费流失率下降 18%</text>
			
				<circle cx="262" cy="463" r="2.4" fill="#1f3a5f"/>
				<text x="272" y="467" class="body" font-size="10">沉淀需求分级机制，跨部门评审周期缩短 35%</text>
			
				</g>
			
	

		<text x="58" y="586" class="section-title" fill="#1f3a5f" >教育</text>
		<line x1="58" y1="596" x2="538" y2="596" stroke="#1f3a5f" stroke-width="1.3" opacity=".55"/>
		<text x="58" y="616" class="body" font-size="11">上海交通大学 / 信息管理 / 本科</text>
	</g>
	</svg>